<svg width="48" height="16" viewBox="0 0 48 16" fill="none" xmlns="http://www.w3.org/2000/svg">
<path d="M17.5924 9.33413C17.2324 9.33413 16.9124 9.27013 16.6324 9.14213C16.3524 9.01413 16.1324 8.81813 15.9724 8.55413C15.8204 8.28213 15.7444 7.93413 15.7444 7.51013V4.47413H15.1324L15.0004 3.70613L16.6804 3.40613L17.0884 3.83813V7.28213C17.0884 7.45813 17.1124 7.61013 17.1604 7.73813C17.2084 7.85813 17.2724 7.95813 17.3524 8.03813C17.4324 8.11813 17.5244 8.17413 17.6284 8.20613C17.7324 8.23813 17.8444 8.25413 17.9644 8.25413C18.1804 8.25413 18.3844 8.19413 18.5764 8.07413C18.7684 7.94613 18.9004 7.80213 18.9724 7.64213V4.45013L18.4084 4.47413L18.2764 3.70613L19.9084 3.40613L20.3164 3.83813V8.08613C20.3164 8.19013 20.3364 8.26213 20.3764 8.30213C20.4164 8.33413 20.4644 8.35013 20.5204 8.35013C20.5604 8.35013 20.5964 8.34613 20.6284 8.33813C20.6604 8.33013 20.6804 8.32613 20.6884 8.32613L20.9044 8.96213C20.8564 9.01813 20.7524 9.09413 20.5924 9.19013C20.4324 9.28613 20.2364 9.33413 20.0044 9.33413C19.8044 9.33413 19.6244 9.29013 19.4644 9.20213C19.3044 9.11413 19.1804 8.97013 19.0924 8.77013C18.9084 8.96213 18.6764 9.10613 18.3964 9.20213C18.1244 9.29013 17.8564 9.33413 17.5924 9.33413Z" fill="#F6A365"/>
<path d="M13.0545 9.32215C12.6785 9.32215 12.3385 9.25815 12.0345 9.13015C11.7385 8.99415 11.4905 8.82215 11.2905 8.61415C11.0905 8.40615 10.9465 8.20215 10.8585 8.00215L12.2985 7.45015L12.6105 8.20615C12.6585 8.21415 12.7265 8.22615 12.8145 8.24215C12.9105 8.25815 13.0145 8.26615 13.1265 8.26615C13.2145 8.26615 13.3065 8.24615 13.4025 8.20615C13.5065 8.16615 13.5945 8.10215 13.6665 8.01415C13.7465 7.92615 13.7865 7.81015 13.7865 7.66615C13.7865 7.49815 13.7225 7.36615 13.5945 7.27015C13.4665 7.16615 13.3105 7.08215 13.1265 7.01815C12.9505 6.95415 12.7905 6.89015 12.6465 6.82615C12.1025 6.61815 11.7145 6.37415 11.4825 6.09415C11.2505 5.80615 11.1345 5.48215 11.1345 5.12215C11.1345 4.80215 11.2225 4.51415 11.3985 4.25815C11.5825 3.99415 11.8265 3.79015 12.1305 3.64615C12.4425 3.49415 12.7865 3.41815 13.1625 3.41815C13.5465 3.41815 13.8745 3.48215 14.1465 3.61015C14.4185 3.73015 14.6385 3.88215 14.8065 4.06615C14.9825 4.25015 15.1105 4.42615 15.1905 4.59415L13.7505 5.17015L13.4625 4.55815C13.4545 4.55015 13.4185 4.53415 13.3545 4.51015C13.2985 4.48615 13.2185 4.47415 13.1145 4.47415C12.9945 4.47415 12.8905 4.49415 12.8025 4.53415C12.7145 4.57415 12.6425 4.63015 12.5865 4.70215C12.5385 4.77415 12.5145 4.86615 12.5145 4.97815C12.5145 5.11415 12.5825 5.23415 12.7185 5.33815C12.8545 5.43415 13.0345 5.53015 13.2585 5.62615C13.4825 5.71415 13.7185 5.82215 13.9665 5.95015C14.2945 6.10215 14.5705 6.30215 14.7945 6.55015C15.0265 6.79815 15.1425 7.12215 15.1425 7.52215C15.1425 7.90615 15.0425 8.23415 14.8425 8.50615C14.6505 8.77815 14.3945 8.98215 14.0745 9.11815C13.7545 9.25415 13.4145 9.32215 13.0545 9.32215Z" fill="#F6A365"/>
<path d="M9.00872 9.33415C8.53672 9.33415 8.09272 9.22615 7.67672 9.01015C7.26872 8.78615 6.93672 8.45815 6.68072 8.02615C6.43272 7.59415 6.30872 7.06215 6.30872 6.43015C6.30872 5.75015 6.43672 5.19015 6.69272 4.75015C6.94872 4.30215 7.28072 3.97015 7.68872 3.75415C8.09672 3.53015 8.52072 3.41815 8.96072 3.41815C9.29672 3.41815 9.61672 3.47815 9.92072 3.59815C10.2247 3.71015 10.4727 3.89015 10.6647 4.13815C10.8647 4.37815 10.9647 4.68215 10.9647 5.05015C10.9647 5.40215 10.8887 5.69815 10.7367 5.93815C10.5927 6.17815 10.3887 6.37415 10.1247 6.52615C9.86872 6.67815 9.57672 6.79015 9.24872 6.86215C8.92872 6.92615 8.59272 6.95415 8.24072 6.94615L7.71272 6.93415C7.76072 7.31015 7.90072 7.62615 8.13272 7.88215C8.36472 8.13815 8.72872 8.26615 9.22472 8.26615C9.57672 8.26615 9.86472 8.20215 10.0887 8.07415C10.3207 7.94615 10.5087 7.81415 10.6527 7.67815L10.9287 8.65015C10.8407 8.75415 10.7047 8.85815 10.5207 8.96215C10.3367 9.06615 10.1167 9.15415 9.86072 9.22615C9.60472 9.29815 9.32072 9.33415 9.00872 9.33415ZM7.71272 5.97415L8.08472 5.98615C8.24472 5.99415 8.41272 5.98615 8.58872 5.96215C8.76472 5.93015 8.92872 5.88215 9.08072 5.81815C9.24072 5.75415 9.36472 5.66215 9.45272 5.54215C9.54872 5.42215 9.59672 5.27015 9.59672 5.08615C9.59672 4.88615 9.53672 4.73815 9.41672 4.64215C9.29672 4.53815 9.14872 4.48615 8.97272 4.48615C8.75672 4.48615 8.55672 4.55415 8.37272 4.69015C8.18872 4.82615 8.03672 5.00615 7.91672 5.23015C7.80472 5.45415 7.73672 5.70215 7.71272 5.97415Z" fill="#F6A365"/>
<path d="M0.096 9.28614L0 8.32614L0.804 8.15814V2.11014L0.0120001 2.02614V0.994141H2.808C3.568 0.994141 4.2 1.10614 4.704 1.33014C5.216 1.55414 5.596 1.86614 5.844 2.26614C6.1 2.66614 6.228 3.13414 6.228 3.67014C6.228 4.26214 6.076 4.75814 5.772 5.15814C5.468 5.55814 5.056 5.86214 4.536 6.07014L5.616 8.18214L6.372 8.31414V9.28614H4.44L3.168 6.40614C3.024 6.41414 2.876 6.42214 2.724 6.43014C2.58 6.43814 2.424 6.44214 2.256 6.44214V8.19414L2.928 8.31414V9.28614H0.096ZM2.256 5.24214H2.688C3.152 5.24214 3.532 5.17814 3.828 5.05014C4.132 4.92214 4.356 4.74214 4.5 4.51014C4.652 4.27814 4.728 4.00614 4.728 3.69414C4.728 3.37414 4.656 3.10614 4.512 2.89014C4.376 2.66614 4.148 2.49814 3.828 2.38614C3.508 2.26614 3.072 2.20214 2.52 2.19414H2.256V5.24214Z" fill="#F6A365"/>
<path d="M23.6555 7.7666C23.7271 8.06738 23.7629 8.45052 23.7629 8.91602V13.8574C23.7629 14.2012 23.6913 14.4661 23.548 14.6523C23.3762 14.8529 23.1577 15.0283 22.8928 15.1787C22.6278 15.3219 22.4416 15.3936 22.3342 15.3936C22.0835 15.3936 21.9582 15.2396 21.9582 14.9316V4.75879C21.9582 4.67285 21.9797 4.60482 22.0226 4.55469C22.0656 4.4974 22.1193 4.46875 22.1838 4.46875C22.2912 4.46875 22.3986 4.57617 22.506 4.79102C22.6206 5.00586 22.8211 5.46419 23.1076 6.16602C23.4084 6.91797 23.591 7.4515 23.6555 7.7666ZM26.298 12.6543L22.0226 1.53613C21.9654 1.40007 21.9367 1.26758 21.9367 1.13867C21.9367 0.966797 22.0047 0.805664 22.1408 0.655273C22.3055 0.454753 22.5239 0.297201 22.7961 0.182617C23.0682 0.0608724 23.2795 0 23.4299 0C23.5874 0 23.7092 0.0358073 23.7951 0.107422C23.8882 0.179036 23.9741 0.311523 24.0529 0.504883L27.6838 10.2695C27.8127 10.6204 27.8771 10.9069 27.8771 11.1289C27.8771 11.3079 27.8342 11.5228 27.7482 11.7734C27.5764 12.2103 27.4081 12.554 27.2433 12.8047C27.093 13.041 26.9318 13.1592 26.7599 13.1592C26.674 13.1592 26.5952 13.1234 26.5236 13.0518C26.452 12.9801 26.3768 12.8477 26.298 12.6543ZM32.0344 7.62695L29.7892 13.46C29.5529 14.0472 29.1805 14.5163 28.6721 14.8672C28.1779 15.2181 27.7948 15.3936 27.5226 15.3936C27.3078 15.3936 27.2004 15.2933 27.2004 15.0928C27.2004 15.0068 27.2362 14.8815 27.3078 14.7168L31.7014 3.07227C31.8303 2.80729 31.9341 2.6569 32.0129 2.62109C32.0558 2.59961 32.0988 2.58887 32.1418 2.58887C32.3065 2.58887 32.4103 2.72852 32.4533 3.00781C32.4963 3.25846 32.5178 3.83854 32.5178 4.74805C32.5178 5.3138 32.4855 5.81152 32.4211 6.24121C32.3638 6.66374 32.2349 7.12565 32.0344 7.62695ZM35.3215 0.461914V13.793C35.3215 14.1439 35.2499 14.4053 35.1066 14.5771C34.9276 14.792 34.6698 14.9818 34.3332 15.1465C34.0038 15.3112 33.7352 15.3936 33.5275 15.3936C33.284 15.3936 33.1623 15.2396 33.1623 14.9316V1.60059C33.1623 1.2998 33.2339 1.0599 33.3771 0.880859C33.5633 0.658854 33.8211 0.458333 34.1506 0.279297C34.48 0.093099 34.745 0 34.9455 0C35.1961 0 35.3215 0.153971 35.3215 0.461914Z" fill="#F6A365"/>
<path d="M46.1057 15.3341C45.5217 15.3341 45.0377 15.2101 44.6537 14.9621C44.2697 14.7061 43.9817 14.3621 43.7897 13.9301C43.5977 13.4981 43.5017 13.0221 43.5017 12.5021C43.5017 11.9501 43.6017 11.4501 43.8017 11.0021C44.0017 10.5541 44.2897 10.1981 44.6657 9.93412C45.0417 9.67012 45.4937 9.53812 46.0217 9.53812C46.3497 9.53812 46.6457 9.60212 46.9097 9.73012C47.1817 9.85012 47.3977 10.0261 47.5577 10.2581C47.7257 10.4901 47.8097 10.7741 47.8097 11.1101C47.8097 11.5341 47.7057 11.8781 47.4977 12.1421C47.2897 12.3981 47.0137 12.5941 46.6697 12.7301C46.3337 12.8581 45.9697 12.9461 45.5777 12.9941C45.1857 13.0421 44.8017 13.0661 44.4257 13.0661H44.3297C44.4097 13.5301 44.5937 13.9141 44.8817 14.2181C45.1777 14.5141 45.6057 14.6621 46.1657 14.6621C46.4217 14.6621 46.6737 14.6261 46.9217 14.5541C47.1697 14.4741 47.3857 14.3661 47.5697 14.2301L47.7737 14.8781C47.6217 14.9901 47.4537 15.0821 47.2697 15.1541C47.0857 15.2181 46.8937 15.2621 46.6937 15.2861C46.5017 15.3181 46.3057 15.3341 46.1057 15.3341ZM44.2937 12.3581H44.4977C44.7217 12.3581 44.9777 12.3501 45.2657 12.3341C45.5537 12.3101 45.8297 12.2621 46.0937 12.1901C46.3577 12.1101 46.5777 11.9861 46.7537 11.8181C46.9297 11.6421 47.0177 11.4061 47.0177 11.1101C47.0177 10.7901 46.9057 10.5621 46.6817 10.4261C46.4657 10.2901 46.2417 10.2221 46.0097 10.2221C45.6417 10.2221 45.3337 10.3221 45.0857 10.5221C44.8377 10.7141 44.6457 10.9741 44.5097 11.3021C44.3817 11.6221 44.3097 11.9741 44.2937 12.3581Z" fill="#F6A365"/>
<path d="M42.3769 15.3341C42.1289 15.3341 41.9209 15.2781 41.7529 15.1661C41.5929 15.0461 41.4729 14.8861 41.3929 14.6861C41.3129 14.4861 41.2729 14.2621 41.2729 14.0141L41.2969 10.1981H40.3369L40.1689 9.67013L40.2529 9.53813H41.3089L41.3209 7.52213L41.9929 7.35413L42.0649 7.48613L42.0529 9.53813H43.3249C43.3649 9.53813 43.3849 9.56213 43.3849 9.61013V10.1981H42.0409V14.0741C42.0409 14.2901 42.0849 14.4381 42.1729 14.5181C42.2689 14.5981 42.4049 14.6381 42.5809 14.6381C42.7489 14.6381 42.9049 14.5981 43.0489 14.5181C43.1929 14.4301 43.2929 14.3661 43.3489 14.3261L43.5529 14.9381C43.4569 15.0101 43.3169 15.0941 43.1329 15.1901C42.9569 15.2861 42.7049 15.3341 42.3769 15.3341Z" fill="#F6A365"/>
<path d="M37.788 15.3341C37.468 15.3341 37.172 15.2741 36.9 15.1541C36.628 15.0261 36.408 14.8421 36.24 14.6021C36.08 14.3621 36 14.0781 36 13.7501C36 13.3421 36.104 13.0141 36.312 12.7661C36.528 12.5181 36.8 12.3261 37.128 12.1901C37.464 12.0541 37.812 11.9621 38.172 11.9141C38.532 11.8661 38.856 11.8381 39.144 11.8301V11.0621C39.144 10.8061 39.048 10.6021 38.856 10.4501C38.664 10.2981 38.408 10.2221 38.088 10.2221C37.968 10.2221 37.824 10.2341 37.656 10.2581C37.496 10.2741 37.364 10.3141 37.26 10.3781L37.068 11.0141L36.084 10.8341C36.22 10.3861 36.472 10.0581 36.84 9.85012C37.216 9.64212 37.608 9.53812 38.016 9.53812C38.456 9.53812 38.812 9.61012 39.084 9.75412C39.364 9.89012 39.568 10.0861 39.696 10.3421C39.832 10.5981 39.9 10.8981 39.9 11.2421V14.3381C39.9 14.4261 39.92 14.5061 39.96 14.5781C40 14.6501 40.072 14.6861 40.176 14.6861C40.216 14.6861 40.26 14.6781 40.308 14.6621C40.356 14.6461 40.396 14.6341 40.428 14.6261L40.56 15.0821C40.48 15.1701 40.38 15.2341 40.26 15.2741C40.14 15.3141 40.02 15.3341 39.9 15.3341C39.684 15.3341 39.524 15.2861 39.42 15.1901C39.316 15.0861 39.244 14.9581 39.204 14.8061C39.028 14.9741 38.82 15.1061 38.58 15.2021C38.34 15.2901 38.076 15.3341 37.788 15.3341ZM37.872 14.6501C38.12 14.6501 38.36 14.5941 38.592 14.4821C38.824 14.3621 39.008 14.1981 39.144 13.9901V12.5021C38.944 12.5021 38.708 12.5181 38.436 12.5501C38.172 12.5821 37.912 12.6381 37.656 12.7181C37.408 12.7981 37.2 12.9181 37.032 13.0781C36.872 13.2381 36.792 13.4501 36.792 13.7141C36.792 13.9861 36.888 14.2101 37.08 14.3861C37.272 14.5621 37.536 14.6501 37.872 14.6501Z" fill="#F6A365"/>
</svg>
