<svg width="8" height="9" viewBox="0 0 8 9" fill="none" xmlns="http://www.w3.org/2000/svg">
<path d="M1.00488 4.54082C1.04676 4.71668 1.06769 4.94068 1.06769 5.21284V8.10188C1.06769 8.30286 1.02582 8.45778 0.94208 8.56664C0.841591 8.68388 0.713887 8.78646 0.558967 8.87439C0.404047 8.95813 0.295185 9 0.23238 9C0.0858339 9 0.0125611 8.90998 0.0125611 8.72994V2.78228C0.0125611 2.73203 0.0251221 2.69225 0.0502442 2.66294C0.0753664 2.62945 0.106769 2.6127 0.144452 2.6127C0.207258 2.6127 0.270063 2.67551 0.332868 2.80112C0.39986 2.92673 0.517097 3.1947 0.684578 3.60502C0.860433 4.04466 0.967202 4.35659 1.00488 4.54082ZM2.5499 7.39846L0.0502442 0.898116C0.0167481 0.818562 0 0.741103 0 0.665736C0 0.565248 0.0397767 0.47104 0.11933 0.383112C0.215632 0.265876 0.343336 0.173761 0.502442 0.106769C0.661549 0.0355897 0.785066 0 0.872994 0C0.965108 0 1.03629 0.0209351 1.08653 0.0628053C1.14096 0.104676 1.19121 0.182135 1.23726 0.295185L3.36008 6.00419C3.43545 6.20935 3.47313 6.37683 3.47313 6.50663C3.47313 6.61131 3.44801 6.73692 3.39777 6.88346C3.29728 7.13887 3.19888 7.33985 3.10258 7.48639C3.01465 7.62456 2.92045 7.69365 2.81996 7.69365C2.76971 7.69365 2.72366 7.67271 2.68179 7.63084C2.63992 7.58897 2.59595 7.51151 2.5499 7.39846ZM5.9037 4.45918L4.59107 7.8695C4.4529 8.21284 4.23517 8.48709 3.93789 8.69225C3.64899 8.89742 3.42498 9 3.26588 9C3.14027 9 3.07746 8.94138 3.07746 8.82415C3.07746 8.7739 3.0984 8.70063 3.14027 8.60433L5.709 1.79623C5.78437 1.64131 5.84508 1.55338 5.89114 1.53245C5.91626 1.51989 5.94138 1.51361 5.9665 1.51361C6.06281 1.51361 6.12352 1.59525 6.14864 1.75855C6.17376 1.90509 6.18632 2.24424 6.18632 2.77599C6.18632 3.10677 6.16748 3.39777 6.1298 3.64899C6.0963 3.89602 6.02094 4.16609 5.9037 4.45918ZM7.82554 0.270063V8.0642C7.82554 8.26937 7.78367 8.42219 7.69993 8.52268C7.59525 8.64829 7.44452 8.75925 7.24773 8.85555C7.05513 8.95185 6.89812 9 6.77669 9C6.63433 9 6.56315 8.90998 6.56315 8.72994V0.935799C6.56315 0.759944 6.60502 0.619679 6.68876 0.515003C6.79763 0.385206 6.94836 0.267969 7.14096 0.163294C7.33357 0.0544313 7.48849 0 7.60572 0C7.75227 0 7.82554 0.0900209 7.82554 0.270063Z" fill="#F6A365"/>
</svg>
